<svg width="14" height="14" viewBox="0 0 22 22" fill="none" xmlns="http://www.w3.org/2000/svg"><g clip-path="url(#a)" filter="url(#b)"><path d="M15.667 13.358h-.175c-1.867-.233-3.734-.875-5.309-1.866a12.267 12.267 0 0 1-3.675-3.675 11.617 11.617 0 0 1-1.866-5.309c0-.466.116-.933.408-1.283.292-.35.7-.583 1.167-.642h1.925A1.76 1.76 0 0 1 9.892 2.1c.058.525.175 1.05.35 1.517.233.641.058 1.341-.409 1.866l-.408.409c.7 1.05 1.575 1.983 2.683 2.683l.409-.408a1.823 1.823 0 0 1 1.866-.409 6.39 6.39 0 0 0 1.517.35 1.761 1.761 0 0 1 1.517 1.75v1.75c0 .467-.175.934-.525 1.225-.35.292-.759.525-1.225.525ZM8.142 1.75h-1.75c-.175 0-.35.117-.467.233-.058.117-.117.234-.117.409A10.972 10.972 0 0 0 7.5 7.175c.875 1.342 1.983 2.508 3.325 3.325a10.973 10.973 0 0 0 4.783 1.692c.234 0 .35-.059.467-.175a.53.53 0 0 0 .175-.409v-1.75c0-.291-.233-.525-.525-.583-.583-.058-1.167-.233-1.75-.467-.233-.058-.467-.058-.642.117l-.758.758a.62.62 0 0 1-.7.117 9.572 9.572 0 0 1-3.733-3.733c-.059-.234 0-.525.175-.7l.758-.759c.117-.116.175-.408.117-.583-.234-.583-.35-1.167-.467-1.75 0-.292-.292-.525-.583-.525Zm6.941 4.083a.568.568 0 0 1-.583-.466c-.175-.934-.933-1.634-1.867-1.867a.605.605 0 0 1-.466-.7.605.605 0 0 1 .7-.467c1.4.292 2.508 1.342 2.741 2.742.059.292-.116.642-.466.7 0 0 0 .058-.059.058Zm2.334-.058c-.292 0-.525-.233-.584-.525-.233-2.158-1.925-3.85-4.141-4.142a.683.683 0 0 1-.525-.641c0-.292.35-.525.641-.525 2.742.291 4.842 2.391 5.134 5.133.058.292-.175.583-.525.642.058.058 0 .058 0 .058Z" fill="#fff"/></g><defs><clipPath id="a"><path fill="#fff" transform="translate(4)" d="M0 0h14v14H0z"/></clipPath><filter id="b" x="0" y="0" width="22" height="22" filterUnits="userSpaceOnUse" color-interpolation-filters="sRGB"><feFlood flood-opacity="0" result="BackgroundImageFix"/><feColorMatrix in="SourceAlpha" values="0 0 0 0 0 0 0 0 0 0 0 0 0 0 0 0 0 0 127 0" result="hardAlpha"/><feOffset dy="4"/><feGaussianBlur stdDeviation="2"/><feComposite in2="hardAlpha" operator="out"/><feColorMatrix values="0 0 0 0 0 0 0 0 0 0 0 0 0 0 0 0 0 0 0.25 0"/><feBlend in2="BackgroundImageFix" result="effect1_dropShadow_11_296"/><feBlend in="SourceGraphic" in2="effect1_dropShadow_11_296" result="shape"/></filter></defs></svg>